<svg xmlns="http://www.w3.org/2000/svg" viewBox="0 0 179.78 184.63"><defs><style>.cls-1{opacity:0.25;}.cls-2,.cls-3{fill:#7d8777;}.cls-3{font-size:12px;font-family:LexendZetta-Regular, Lexend Zetta;}</style></defs><title>Asset 1</title><g id="Layer_2" data-name="Layer 2"><g id="Layer_1-2" data-name="Layer 1"><g class="cls-1"><path class="cls-2" d="M133.56,173.88l-1.73-1.34-4.47,2.2v2.19l-1.23.6,0-9.35,1.36-.66,7.37,5.73Zm-6.22-3.33,0,2.8,3.37-1.66-2.26-1.75-.58-.46c-.19-.14-.38-.3-.58-.48,0,.28,0,.54,0,.79Z"/><path class="cls-2" d="M139.34,160.22l1.07-.73,4.73,6.95-1.08.73-9.26-1.69c.33.41.66.81,1,1.2s.64.82.93,1.25l2,2.88-1.08.73-4.72-6.95,1.06-.72,9.36,1.83a12.71,12.71,0,0,1-.83-1c-.28-.37-.56-.74-.83-1.12s-.53-.75-.76-1.09Z"/><path class="cls-2" d="M148.58,152.28l1-.88,5.69,6.18-1,.89-9.41-.31,1.16,1a14.27,14.27,0,0,1,1.11,1.09l2.37,2.57-1,.87-5.69-6.17,1-.87,9.52.43c-.31-.25-.63-.54-1-.86s-.67-.65-1-1-.63-.65-.92-1Z"/><path class="cls-2" d="M160.93,144.38a3.92,3.92,0,0,1,1.08,1.36,4,4,0,0,1,.4,1.68,5.15,5.15,0,0,1-.29,1.83,5.92,5.92,0,0,1-1,1.79,6,6,0,0,1-1.55,1.38,4.91,4.91,0,0,1-1.72.68,4.37,4.37,0,0,1-1.73,0,4,4,0,0,1-1.55-.78,3.93,3.93,0,0,1-1.09-1.36,4.16,4.16,0,0,1-.41-1.68,5,5,0,0,1,.3-1.83,6.55,6.55,0,0,1,2.57-3.17,5,5,0,0,1,1.73-.67,4,4,0,0,1,3.29.82Zm-.83,1a2.74,2.74,0,0,0-1.52-.61,3.35,3.35,0,0,0-1.69.35,4.38,4.38,0,0,0-1.54,1.26,4.71,4.71,0,0,0-.92,1.77,3.23,3.23,0,0,0,0,1.72,2.84,2.84,0,0,0,2.43,2,3.28,3.28,0,0,0,1.68-.34,4.46,4.46,0,0,0,1.55-1.27,4.41,4.41,0,0,0,.91-1.77,3.34,3.34,0,0,0,0-1.72A2.79,2.79,0,0,0,160.1,145.4Z"/><text class="cls-3" transform="translate(165.15 145.84) rotate(-56.96)"> </text><path class="cls-2" d="M171,133.34l1.1.59-2.92,5.42-1.05-.11-.84-3.74-.33-1.27a7.46,7.46,0,0,0-.4-1.11,1.42,1.42,0,0,0-.6-.67,1.08,1.08,0,0,0-1-.08,1.87,1.87,0,0,0-.84.89,2.92,2.92,0,0,0-.34,1.37,3.06,3.06,0,0,0,.48,1.6l-1,.51a4.59,4.59,0,0,1-.61-2,3.94,3.94,0,0,1,.52-2.2,3,3,0,0,1,1.51-1.48,2.07,2.07,0,0,1,1.78.13,2.35,2.35,0,0,1,.81.73,4.73,4.73,0,0,1,.52,1,11.22,11.22,0,0,1,.33,1.17c.1.4.19.79.28,1.15l.49,2Z"/><path class="cls-2" d="M174.72,128.2a3.75,3.75,0,0,1-1.31,1.72,3.38,3.38,0,0,1-1.9.61,5.91,5.91,0,0,1-4.13-1.69,3.47,3.47,0,0,1-.93-1.76,3.76,3.76,0,0,1,.27-2.15,3.52,3.52,0,0,1,1.29-1.67,3.39,3.39,0,0,1,1.88-.57,5.45,5.45,0,0,1,2.23.45,5.59,5.59,0,0,1,1.91,1.24,3.41,3.41,0,0,1,.94,1.72A3.5,3.5,0,0,1,174.72,128.2Zm-1.09-.45a2.13,2.13,0,0,0-.08-2,3.65,3.65,0,0,0-1.91-1.47,3.71,3.71,0,0,0-2.4-.29,2.17,2.17,0,0,0-1.43,1.36,2.28,2.28,0,0,0,.05,2,4.33,4.33,0,0,0,4.31,1.76A2.3,2.3,0,0,0,173.63,127.75Z"/><path class="cls-2" d="M178.31,117.38,177,121.8l-1.19-.36.51-1.74L170.69,118l.38,1.75-1.15.15-.53-2.42.33-1.13,7,2.07.43-1.43Z"/><path class="cls-2" d="M177.79,107.34a2.09,2.09,0,0,1,1.2.68,3.08,3.08,0,0,1,.7,1.37,4.45,4.45,0,0,1,0,1.82,4.51,4.51,0,0,1-.68,1.69,3,3,0,0,1-1.16,1,2.15,2.15,0,0,1-1.36.18,1.78,1.78,0,0,1-1.05-.55,2.86,2.86,0,0,1-.52-.91,2.38,2.38,0,0,1-.76.4,2,2,0,0,1-1,0,1.92,1.92,0,0,1-1.08-.62,2.85,2.85,0,0,1-.63-1.25,3.9,3.9,0,0,1,.59-3,2.74,2.74,0,0,1,1.05-.91,1.89,1.89,0,0,1,1.23-.17,1.94,1.94,0,0,1,1,.43,2.27,2.27,0,0,1,.53.66,2.53,2.53,0,0,1,.91-.7A1.84,1.84,0,0,1,177.79,107.34Zm-4.5,4.48a.93.93,0,0,0,.67-.11,1.53,1.53,0,0,0,.54-.56,2.44,2.44,0,0,0,.33-.88,2.34,2.34,0,0,0,0-.91,1.62,1.62,0,0,0-.3-.72.93.93,0,0,0-.58-.35.89.89,0,0,0-.84.35,2.39,2.39,0,0,0-.55,1.2,2.44,2.44,0,0,0,.06,1.33A.89.89,0,0,0,173.29,111.82Zm5.22-.84a3.15,3.15,0,0,0,0-1.14,1.89,1.89,0,0,0-.33-.86,1,1,0,0,0-.63-.41.92.92,0,0,0-.73.16,2,2,0,0,0-.59.69,3.68,3.68,0,0,0-.37,1.06,3.58,3.58,0,0,0,0,1.12,2,2,0,0,0,.29.87.93.93,0,0,0,.62.42,1,1,0,0,0,.73-.15,1.92,1.92,0,0,0,.64-.68A3.45,3.45,0,0,0,178.51,111Z"/><path class="cls-2" d="M167.64,65a4.36,4.36,0,0,1-.31-2.43,1.77,1.77,0,0,1,1.21-1.29,1.67,1.67,0,0,1,1.06,0,2,2,0,0,1,1,.69,3.82,3.82,0,0,1,.09-1,2.13,2.13,0,0,1,.43-.83,1.86,1.86,0,0,1,.87-.58,2.21,2.21,0,0,1,1.24-.14,2.05,2.05,0,0,1,1,.48,3.45,3.45,0,0,1,.73.87,6.17,6.17,0,0,1,.51,1.07l1.67,4.6-7.9,2.87Zm1.14-.52,1.15,3.18,2-.73-1.2-3.32a2.57,2.57,0,0,0-.4-.71,1.41,1.41,0,0,0-.56-.43.86.86,0,0,0-.63,0,.83.83,0,0,0-.59.76A2.81,2.81,0,0,0,168.78,64.48Zm3.14-1.36,1.23,3.38,2.33-.85-1.24-3.43a3,3,0,0,0-.77-1.22,1,1,0,0,0-1.07-.19.91.91,0,0,0-.59.54,1.88,1.88,0,0,0-.1.86A4.47,4.47,0,0,0,171.92,63.12Z"/><path class="cls-2" d="M164.07,51.27a2.48,2.48,0,0,1,1.11-.29,2.85,2.85,0,0,1,1.11.22,2.9,2.9,0,0,1,1,.63L169,48.14l.73,1.44-1.66,3.49,1.33,2.56,2.74-1.44.6,1.15-7.44,3.89-2.27-4.35a2.8,2.8,0,0,1-.33-1.37,2.67,2.67,0,0,1,.36-1.3A2.43,2.43,0,0,1,164.07,51.27Zm.25,3.35,1.5,2.88,2.49-1.3-1.5-2.88a1.78,1.78,0,0,0-.58-.66,1.84,1.84,0,0,0-.76-.3,1.32,1.32,0,0,0-.76.13,1.12,1.12,0,0,0-.49.52,1.76,1.76,0,0,0-.14.77A2.06,2.06,0,0,0,164.32,54.62Z"/><path class="cls-2" d="M155.27,42.89l3.58-2.54a4.21,4.21,0,0,1,2-.79,3.77,3.77,0,0,1,2,.36,4.89,4.89,0,0,1,2.58,3.64,3.74,3.74,0,0,1-.33,2,4.28,4.28,0,0,1-1.42,1.65l-3.59,2.53-.75-1.05L163,46.22a2.85,2.85,0,0,0,1-1.18,2.88,2.88,0,0,0,.22-1.45,3,3,0,0,0-.55-1.43,3.12,3.12,0,0,0-1.2-1,2.68,2.68,0,0,0-1.44-.28,2.83,2.83,0,0,0-1.44.55L156,43.9Z"/><path class="cls-2" d="M150.18,37.28a6.61,6.61,0,0,1-1-1.37,6.19,6.19,0,0,1-.55-1.35,3.32,3.32,0,0,1-.13-1.16l1.26,0a6.08,6.08,0,0,0,.41,1.6,4.5,4.5,0,0,0,.94,1.46,4.55,4.55,0,0,0,1.61,1.13,3.39,3.39,0,0,0,1.72.26,2.46,2.46,0,0,0,1.47-.69,2.93,2.93,0,0,0,.79-1.17,2.69,2.69,0,0,0,.12-1.26,3.65,3.65,0,0,0-.42-1.24,4.94,4.94,0,0,0-.81-1.14,6.27,6.27,0,0,0-1.35-1.09,3.38,3.38,0,0,0-1.3-.47,1.37,1.37,0,0,0-1,.27l2.33,2.48-.91.86L150,30.87l.18-.22.19-.2a3.66,3.66,0,0,1,1-.68,3.23,3.23,0,0,1,1-.28,3.86,3.86,0,0,1,2,.45,7.27,7.27,0,0,1,2.07,1.59,6.65,6.65,0,0,1,1.1,1.57,5.13,5.13,0,0,1,.5,1.72,3.9,3.9,0,0,1-.23,1.72,4.2,4.2,0,0,1-1.1,1.59,3.68,3.68,0,0,1-1.49.86,4.27,4.27,0,0,1-1.75.13,5.36,5.36,0,0,1-1.79-.58A6.22,6.22,0,0,1,150.18,37.28Z"/><path class="cls-2" d="M148.61,27.46a5.59,5.59,0,0,0-.45-1.84A4.1,4.1,0,0,0,147,24.11a5,5,0,0,0-1-.64,2.52,2.52,0,0,0-1-.24,1,1,0,0,0-.78.36.71.71,0,0,0-.14.69,2.74,2.74,0,0,0,.54.85c.27.32.61.69,1,1.12a9.11,9.11,0,0,1,1.18,1.52,2.93,2.93,0,0,1,.46,1.38,1.78,1.78,0,0,1-.45,1.23,1.93,1.93,0,0,1-1.23.73,3.19,3.19,0,0,1-1.58-.2,5.62,5.62,0,0,1-1.65-1,5.84,5.84,0,0,1-1.47-1.7,3.43,3.43,0,0,1-.45-1.77l1.27-.19a3.31,3.31,0,0,0,.34,1.45A3.77,3.77,0,0,0,143,29.07a4.85,4.85,0,0,0,1,.63,2.05,2.05,0,0,0,.88.2.83.83,0,0,0,.64-.3.87.87,0,0,0,.19-.75,2.19,2.19,0,0,0-.44-.88,12.2,12.2,0,0,0-.9-1c-.33-.34-.65-.69-.94-1a4.93,4.93,0,0,1-.71-1,2,2,0,0,1-.25-1,1.69,1.69,0,0,1,.41-1,2.25,2.25,0,0,1,1.28-.8,3.14,3.14,0,0,1,1.67.13,5.8,5.8,0,0,1,1.83,1.06A6.69,6.69,0,0,1,149.28,25a4.83,4.83,0,0,1,.65,2.14Z"/><path class="cls-2" d="M140.4,18l1.1.68-4.4,7.15L136,25.17l2.39-3.87-2.91.32-4.43.5-1.64-1,5.44-.59L134,14.05l1.47.91.71,5.42,3-.34Z"/><path class="cls-2" d="M119.61,16.71l1.77-4A4.1,4.1,0,0,1,122.7,11a3.73,3.73,0,0,1,1.93-.74A4.93,4.93,0,0,1,128.71,12a3.66,3.66,0,0,1,.77,1.92,4.18,4.18,0,0,1-.37,2.14l-1.76,4-1.19-.52,1.75-4a2.92,2.92,0,0,0,.24-1.52,2.86,2.86,0,0,0-.56-1.36,3,3,0,0,0-1.21-.93,3.13,3.13,0,0,0-1.56-.28,2.61,2.61,0,0,0-1.38.51,2.76,2.76,0,0,0-1,1.21l-1.75,4Z"/><path class="cls-2" d="M109.27,13.62,108,13.28l2.23-8.1,1.26.35,4.71,8.15c.1-.52.19-1,.27-1.54s.2-1,.34-1.52l.93-3.37L119,7.6l-2.23,8.1-1.24-.35-4.67-8.3c-.05.39-.12.81-.22,1.27s-.2.91-.31,1.36-.23.88-.34,1.28Z"/><path class="cls-2" d="M105.49,6.86a5.63,5.63,0,0,0-1.34-1.33,4,4,0,0,0-1.82-.65,4.92,4.92,0,0,0-1.21,0,2.46,2.46,0,0,0-1,.33,1,1,0,0,0-.47.72.66.66,0,0,0,.24.65,2.68,2.68,0,0,0,.9.45c.4.13.88.27,1.46.42a9.05,9.05,0,0,1,1.8.68,2.9,2.9,0,0,1,1.11.93,1.82,1.82,0,0,1,.26,1.29,1.92,1.92,0,0,1-.67,1.26,3.2,3.2,0,0,1-1.44.66,5.52,5.52,0,0,1-1.91,0,5.85,5.85,0,0,1-2.15-.67,3.43,3.43,0,0,1-1.31-1.28l1-.82a3.65,3.65,0,0,0,1,1.06,3.9,3.9,0,0,0,1.61.57,4.68,4.68,0,0,0,1.18,0,1.9,1.9,0,0,0,.86-.29.81.81,0,0,0,.38-.59.85.85,0,0,0-.22-.74,2.23,2.23,0,0,0-.84-.51,10.71,10.71,0,0,0-1.31-.42q-.69-.18-1.35-.39a6,6,0,0,1-1.14-.52A2,2,0,0,1,98.39,7a1.63,1.63,0,0,1-.17-1.07,2.24,2.24,0,0,1,.67-1.35,3,3,0,0,1,1.49-.76,6.09,6.09,0,0,1,2.11-.06,6.71,6.71,0,0,1,2.28.7,4.63,4.63,0,0,1,1.67,1.48Z"/><path class="cls-2" d="M92.66,3l-.12,7.15,3.2.06,0,1.24L88,11.36l0-1.24,3.26.05L91.37,3Z"/><text class="cls-3" transform="matrix(-1, 0.07, -0.07, -1, 86.92, 2.94)"> </text><path class="cls-2" d="M70.33,9.51a3.92,3.92,0,0,1,.07-1.74,4,4,0,0,1,.8-1.53,5.08,5.08,0,0,1,1.43-1.19,6.56,6.56,0,0,1,4-.7A4.87,4.87,0,0,1,78.39,5a4.08,4.08,0,0,1,1.27,1.17,4,4,0,0,1,.67,1.61,3.91,3.91,0,0,1-.08,1.74A4.14,4.14,0,0,1,79.46,11,4.94,4.94,0,0,1,78,12.21a6.16,6.16,0,0,1-2,.68,6.27,6.27,0,0,1-2.07,0,4.87,4.87,0,0,1-1.74-.62A4.12,4.12,0,0,1,71,11.12,3.77,3.77,0,0,1,70.33,9.51Zm1.3-.23a2.69,2.69,0,0,0,.74,1.46,3.32,3.32,0,0,0,1.5.85,4.55,4.55,0,0,0,2,.05,4.43,4.43,0,0,0,1.86-.73A3.22,3.22,0,0,0,78.83,9.6,2.7,2.7,0,0,0,79,8a2.8,2.8,0,0,0-.74-1.46,3.28,3.28,0,0,0-1.49-.85,4.6,4.6,0,0,0-2,0A4.33,4.33,0,0,0,73,6.35a3.25,3.25,0,0,0-1.12,1.31A2.72,2.72,0,0,0,71.63,9.28Z"/><path class="cls-2" d="M64.38,15.79a7.08,7.08,0,0,1-1.67.34,6.22,6.22,0,0,1-1.46-.08,3.55,3.55,0,0,1-1.1-.36l.5-1.17a5.75,5.75,0,0,0,1.62.31,4.88,4.88,0,0,0,3.42-1.22,3.3,3.3,0,0,0,1-1.45,2.5,2.5,0,0,0,0-1.62,2.85,2.85,0,0,0-.73-1.21,2.56,2.56,0,0,0-1.09-.64,3.5,3.5,0,0,0-1.3-.15,5,5,0,0,0-1.37.26,6,6,0,0,0-1.56.76,3.26,3.26,0,0,0-1,1,1.4,1.4,0,0,0-.2,1.05l3.24-1.07.4,1.2-4.56,1.5a1.15,1.15,0,0,1-.12-.25,2.77,2.77,0,0,1-.1-.26,3.51,3.51,0,0,1-.19-1.23,3.45,3.45,0,0,1,.2-1.07,3.88,3.88,0,0,1,1.25-1.64,7.56,7.56,0,0,1,2.32-1.2,6.26,6.26,0,0,1,1.89-.33,5.13,5.13,0,0,1,1.77.27A3.9,3.9,0,0,1,67,8.45a4.29,4.29,0,0,1,1,1.66,3.62,3.62,0,0,1,.15,1.72,4.38,4.38,0,0,1-.62,1.64,5.73,5.73,0,0,1-1.28,1.38A6.33,6.33,0,0,1,64.38,15.79Z"/><text class="cls-3" transform="translate(55.78 9.71) rotate(155.76)"> </text><path class="cls-2" d="M51.76,21.09l-5.36-2-.84,5.66-1.1.65L40.2,18.16l1.11-.66,1.81,3.07c.27.45.51.88.73,1.29s.43.83.62,1.26L45.28,18l.68-.4,4.9,1.79c-.28-.37-.54-.76-.8-1.15s-.51-.81-.78-1.26l-1.81-3.07,1.12-.66,4.27,7.23Z"/><path class="cls-2" d="M37.59,20.47l-.28,1.59a4.39,4.39,0,0,1,1.36.47A4.18,4.18,0,0,1,40.57,25a4.19,4.19,0,0,1,0,1.73A4.93,4.93,0,0,1,40,28.5,6,6,0,0,1,38.57,30a6.15,6.15,0,0,1-1.44.9,5.4,5.4,0,0,1-1.47.41l-.31,1.73L34.22,33l.29-1.61a4,4,0,0,1-1.43-.46,4,4,0,0,1-1.95-2.54,4,4,0,0,1-.05-1.73,4.93,4.93,0,0,1,.67-1.73,6.13,6.13,0,0,1,1.37-1.54,6.67,6.67,0,0,1,1.5-.92A5,5,0,0,1,36.16,22l.32-1.79Zm-4.66,8.59a2.6,2.6,0,0,0,.81.68,2.68,2.68,0,0,0,1,.32l1.2-6.71a3.51,3.51,0,0,0-1,.33,4.56,4.56,0,0,0-1,.64,4.29,4.29,0,0,0-1.26,1.54,3.33,3.33,0,0,0-.34,1.69A2.72,2.72,0,0,0,32.93,29.06Zm5.83-4.74a2.8,2.8,0,0,0-.76-.66,3.17,3.17,0,0,0-.92-.34L35.9,30a4.18,4.18,0,0,0,1-.34,5.41,5.41,0,0,0,.93-.6,4.67,4.67,0,0,0,1.27-1.55,3.31,3.31,0,0,0,.33-1.68A2.68,2.68,0,0,0,38.76,24.32Z"/><path class="cls-2" d="M29.6,38.29a4.28,4.28,0,0,1-2,1.37,1.76,1.76,0,0,1-1.7-.48,1.67,1.67,0,0,1-.52-.93,2.13,2.13,0,0,1,.16-1.19,3.3,3.3,0,0,1-.88.35,2,2,0,0,1-.94,0,2.05,2.05,0,0,1-.92-.52,2.31,2.31,0,0,1-.68-1,2.12,2.12,0,0,1,0-1.09,3.41,3.41,0,0,1,.44-1.05,6.06,6.06,0,0,1,.72-.93l3.34-3.59,6.15,5.73Zm-3.62-3,2.45-2.62L26.61,31l-2.49,2.67a3,3,0,0,0-.73,1.24,1,1,0,0,0,.31,1,.93.93,0,0,0,.76.28,1.73,1.73,0,0,0,.8-.31A3.48,3.48,0,0,0,26,35.32Zm2.64,2.18L30.93,35l-1.58-1.47-2.41,2.58a2.68,2.68,0,0,0-.45.68,1.46,1.46,0,0,0-.13.69.83.83,0,0,0,.29.56.82.82,0,0,0,.94.19A2.88,2.88,0,0,0,28.62,37.5Z"/><path class="cls-2" d="M15.61,44.42l-1-.73,4.06-5.6L25.46,43l-.76,1-5.79-4.2Z"/><path class="cls-2" d="M20,50.86,16.62,57l-1.09-.61,2.77-5L16.36,50.3l-2.44,4.38-1.09-.61,2.44-4.38-2.13-1.18-2.76,5-1.09-.61,3.4-6.08Z"/><path class="cls-2" d="M10.12,65.79a2.24,2.24,0,0,1-.94-.65,2.73,2.73,0,0,1-.56-1A3,3,0,0,1,8.46,63L4.52,64.08l.61-1.5,3.74-1L9.94,58.9,7.07,57.75l.48-1.2,7.8,3.12-1.83,4.55a2.76,2.76,0,0,1-2,1.72A2.34,2.34,0,0,1,10.12,65.79Zm2.38-2.36,1.21-3-2.61-1-1.21,3a1.89,1.89,0,0,0-.13.87A1.66,1.66,0,0,0,10,64a1.23,1.23,0,0,0,.59.49,1,1,0,0,0,.71,0,1.67,1.67,0,0,0,.67-.4A2,2,0,0,0,12.5,63.43Z"/><path class="cls-2" d="M1.78,107.45a6.42,6.42,0,0,1-.68-.85,5.93,5.93,0,0,1-.68-1.25A5.58,5.58,0,0,1,0,103.79a5.82,5.82,0,0,1,.11-1.92,4.93,4.93,0,0,1,.71-1.62A4,4,0,0,1,2.1,99.08a4.19,4.19,0,0,1,1.74-.55,3.85,3.85,0,0,1,1.73.21A4.1,4.1,0,0,1,7,99.66a5.14,5.14,0,0,1,1,1.45,5.46,5.46,0,0,1,.5,1.81,5.87,5.87,0,0,1,0,1.57,7.16,7.16,0,0,1-.39,1.4,4,4,0,0,1-.57,1l-1.16-.65a6.44,6.44,0,0,0,.72-1.52,4.3,4.3,0,0,0,.16-1.81A3.68,3.68,0,0,0,7,101.71a3.44,3.44,0,0,0-.71-1A2.73,2.73,0,0,0,4,99.84a2.91,2.91,0,0,0-1.29.44,2.88,2.88,0,0,0-.87.9,3.59,3.59,0,0,0-.46,1.22,4.75,4.75,0,0,0-.05,1.36A4.16,4.16,0,0,0,1.61,105a5,5,0,0,0,.57,1c.21.27.42.52.62.74Z"/><path class="cls-2" d="M4,117.71,2.75,118,1.2,111.26l8.18-1.89.29,1.26-7,1.61Z"/><path class="cls-2" d="M6.36,128.43l1.52-1.58-1.72-4.68L4,122l-.47-1.28,9.3,1,.52,1.42-6.48,6.73Zm4-5.83-2.79-.28,1.3,3.52,2-2,.51-.54c.16-.17.34-.35.54-.53-.28,0-.54,0-.79,0Z"/><path class="cls-2" d="M10.62,131.68a5.44,5.44,0,0,0-.32,1.86,4,4,0,0,0,.51,1.87,4.38,4.38,0,0,0,.69,1,2.29,2.29,0,0,0,.84.63,1,1,0,0,0,.86,0,.69.69,0,0,0,.39-.58,2.43,2.43,0,0,0-.15-1c-.12-.4-.28-.88-.49-1.44a9.21,9.21,0,0,1-.49-1.86,3,3,0,0,1,.13-1.45,1.84,1.84,0,0,1,.9-.95,1.92,1.92,0,0,1,1.42-.18,3.09,3.09,0,0,1,1.37.8A6.5,6.5,0,0,1,18.1,134a3.49,3.49,0,0,1-.29,1.81l-1.24-.33a3.56,3.56,0,0,0,.26-1.47,3.78,3.78,0,0,0-.46-1.64,4,4,0,0,0-.67-1,2.06,2.06,0,0,0-.73-.54.81.81,0,0,0-.7,0,.87.87,0,0,0-.48.6,2.48,2.48,0,0,0,.06,1,13.46,13.46,0,0,0,.41,1.31c.18.45.33.89.46,1.33A5.88,5.88,0,0,1,15,136.4a2.16,2.16,0,0,1-.18,1,1.59,1.59,0,0,1-.78.75,2.17,2.17,0,0,1-1.49.23,3.11,3.11,0,0,1-1.47-.78,5.77,5.77,0,0,1-1.27-1.7A6.65,6.65,0,0,1,9,133.67a4.69,4.69,0,0,1,.25-2.21Z"/><path class="cls-2" d="M15.88,141.21a5.74,5.74,0,0,0-.08,1.88,4,4,0,0,0,.73,1.79,4.75,4.75,0,0,0,.81.91,2.57,2.57,0,0,0,.91.52,1,1,0,0,0,.85-.14.68.68,0,0,0,.32-.62,2.71,2.71,0,0,0-.27-1c-.17-.39-.4-.84-.67-1.37a9,9,0,0,1-.71-1.78,2.93,2.93,0,0,1-.05-1.46,1.8,1.8,0,0,1,.77-1,1.91,1.91,0,0,1,1.39-.35,3.14,3.14,0,0,1,1.46.62,5.65,5.65,0,0,1,1.31,1.39,5.77,5.77,0,0,1,.94,2,3.41,3.41,0,0,1-.06,1.83l-1.27-.17a3.53,3.53,0,0,0,.08-1.49,3.82,3.82,0,0,0-.66-1.58,4.88,4.88,0,0,0-.78-.88,1.91,1.91,0,0,0-.79-.44.82.82,0,0,0-.7.11.86.86,0,0,0-.39.66,2.05,2.05,0,0,0,.18,1,12.62,12.62,0,0,0,.56,1.25c.23.43.44.85.62,1.26a5.76,5.76,0,0,1,.39,1.2,2,2,0,0,1-.05,1.05,1.69,1.69,0,0,1-.68.85,2.31,2.31,0,0,1-1.45.41,3.17,3.17,0,0,1-1.56-.6,5.81,5.81,0,0,1-1.46-1.53,6.57,6.57,0,0,1-1-2.15,4.67,4.67,0,0,1,0-2.23Z"/><path class="cls-2" d="M24,156l-3.75-4.28,1-.85,1.44,1.65,4.39-3.84L25.62,147l1-.85,3.75,4.28-1,.85-1.45-1.66-4.38,3.85L25,155.11Z"/><path class="cls-2" d="M33.83,163.42a6.5,6.5,0,0,1-2.43-.64,5.63,5.63,0,0,1-1.33-.89,6,6,0,0,1-1.21-1.5,4.78,4.78,0,0,1-.57-1.68,4.09,4.09,0,0,1,.15-1.7,4.17,4.17,0,0,1,.91-1.58,3.94,3.94,0,0,1,1.43-1,4.37,4.37,0,0,1,1.69-.3,5,5,0,0,1,1.76.38,5.21,5.21,0,0,1,1.58,1,5.76,5.76,0,0,1,1,1.19,7.09,7.09,0,0,1,.65,1.29,4.94,4.94,0,0,1,.27,1.15l-1.3.3a6.42,6.42,0,0,0-.49-1.62,4.36,4.36,0,0,0-1.1-1.45,3.82,3.82,0,0,0-1.07-.68,3.68,3.68,0,0,0-1.21-.28,2.92,2.92,0,0,0-1.21.18,2.66,2.66,0,0,0-1.05.74,2.92,2.92,0,0,0-.66,1.18,3,3,0,0,0,0,1.26,3.56,3.56,0,0,0,.48,1.21A5.12,5.12,0,0,0,31,161a3.94,3.94,0,0,0,1.08.71,4.75,4.75,0,0,0,1.06.33c.35.06.67.11,1,.14Z"/><text class="cls-3" transform="translate(34.16 165.39) rotate(36.42)"> </text><path class="cls-2" d="M50.26,168.88a2.39,2.39,0,0,1-.79.82,2.86,2.86,0,0,1-1.06.41,3.24,3.24,0,0,1-1.16,0l.44,4.06-1.38-.84-.42-3.85L43.42,168l-1.58,2.66L40.72,170,45,162.76l4.21,2.51a2.79,2.79,0,0,1,1,1,2.75,2.75,0,0,1,.37,1.3A2.34,2.34,0,0,1,50.26,168.88Zm-2-2.72-2.79-1.67-1.44,2.41,2.79,1.67a1.75,1.75,0,0,0,.84.26,1.59,1.59,0,0,0,.81-.15,1.21,1.21,0,0,0,.57-.5,1.08,1.08,0,0,0,.15-.7,1.75,1.75,0,0,0-.29-.73A2,2,0,0,0,48.29,166.16Z"/><path class="cls-2" d="M61.54,175.66a3.9,3.9,0,0,1-1,1.42,4.14,4.14,0,0,1-1.5.86,5.32,5.32,0,0,1-1.84.22,6,6,0,0,1-2-.49,6.19,6.19,0,0,1-1.76-1.1,4.87,4.87,0,0,1-1.12-1.47,4.15,4.15,0,0,1-.44-1.67,3.94,3.94,0,0,1,.32-1.71,3.81,3.81,0,0,1,1-1.42,4.14,4.14,0,0,1,1.5-.86,4.83,4.83,0,0,1,1.84-.22,5.8,5.8,0,0,1,2,.49,6,6,0,0,1,1.75,1.09,4.91,4.91,0,0,1,1.13,1.47,4.19,4.19,0,0,1,.44,1.68A3.8,3.8,0,0,1,61.54,175.66Zm-1.21-.51a2.71,2.71,0,0,0,.16-1.63A3.31,3.31,0,0,0,59.7,172a4.54,4.54,0,0,0-1.65-1.12,4.45,4.45,0,0,0-2-.39,3.19,3.19,0,0,0-1.64.49,2.64,2.64,0,0,0-1,1.26,2.71,2.71,0,0,0-.18,1.63,3.35,3.35,0,0,0,.8,1.52,4.51,4.51,0,0,0,1.65,1.13,4.71,4.71,0,0,0,2,.39,3.34,3.34,0,0,0,1.65-.5A2.79,2.79,0,0,0,60.33,175.15Z"/><path class="cls-2" d="M73.7,179a4.11,4.11,0,0,1-.79,1.56,4.17,4.17,0,0,1-1.36,1.06,5,5,0,0,1-1.79.49,5.92,5.92,0,0,1-2.06-.19,6.19,6.19,0,0,1-1.9-.83,5.12,5.12,0,0,1-1.33-1.29,4.13,4.13,0,0,1-.67-1.59,4,4,0,0,1,.06-1.74,4,4,0,0,1,.79-1.55A4.09,4.09,0,0,1,66,173.82a4.89,4.89,0,0,1,1.78-.49,6.21,6.21,0,0,1,2.07.19,6,6,0,0,1,1.89.83,5.12,5.12,0,0,1,1.33,1.29,4.26,4.26,0,0,1,.68,1.6A3.9,3.9,0,0,1,73.7,179Zm-1.28-.33a2.66,2.66,0,0,0-.08-1.63,3.22,3.22,0,0,0-1-1.39,4.94,4.94,0,0,0-3.79-1,3.34,3.34,0,0,0-1.55.73,2.82,2.82,0,0,0-.78,3,3.22,3.22,0,0,0,1,1.39,4.6,4.6,0,0,0,1.8.88,4.49,4.49,0,0,0,2,.1,3.33,3.33,0,0,0,1.56-.73A2.73,2.73,0,0,0,72.42,178.64Z"/><path class="cls-2" d="M78.4,175.41l3.13,4.79,4-4.06,1.26.13L86,184.63l-1.29-.14.36-3.54q.08-.78.18-1.47t.24-1.38l-3.7,3.67-.79-.08-2.88-4.34c0,.46,0,.93,0,1.4s-.07,1-.12,1.47l-.36,3.55-1.29-.13.85-8.36Z"/></g></g></g></svg>