<svg xmlns="http://www.w3.org/2000/svg" width="38" height="23" viewBox="0 0 38 23">
    <g fill="none" fill-rule="nonzero">
        <path fill="#F9F9F9" d="M37.09 21.386c0 .663-.547 1.21-1.21 1.21H2.158c-.663 0-1.21-.547-1.21-1.21V1.211C.947.548 1.494 0 2.157 0h33.75c.663 0 1.211.548 1.211 1.21v20.176h-.029z"/>
        <g fill="#EC1C24">
            <path d="M27.118 5.073c.95.086 2.046-.173 2.853.317.778.46 1.326 1.268 1.297 2.219H25.62c-.086.029-.144.173-.26.26-.778.98-1.556 1.96-2.392 2.882.087-1.038.145-2.104.289-3.142h-4.67a82.714 82.714 0 0 1-.144 2.738c-.201-1.009-1.037-2.104-2.075-2.42-.49-.145-.951-.26-1.47-.29l-8.07.03h-.029c0-.894.433-1.7 1.21-2.19.347-.203.693-.375 1.096-.404h18.014zM31.268 14.815s-.029 0 0 0c-1.124-1.211-2.161-2.566-3.141-3.891v-.058c1.008-1.067 1.988-2.162 3.112-3.113h.03v7.062zM14.148 11.068c0 .346-.202.605-.461.807-.634.49-1.585.26-2.421.288l.144-1.902c.836.057 2.45-.289 2.738.807zM25.388 14.67c.087.317.346.231.606.231h5.274c.029.98-.547 1.96-1.499 2.363-.345.145-.749.231-1.152.231h-8.849l-10.693.029c-.893-.058-1.758-.75-2.104-1.585a2.693 2.693 0 0 1-.173-.98l7.897-.03c1.182-.143 2.335-.662 3.027-1.757.26-.404.461-.836.605-1.268-.086 1.008-.115 2.046-.23 3.055h4.64c.029-1.269.086-2.566.173-3.834l2.478 3.545z"/>
        </g>
    </g>
</svg>
