<svg xmlns="http://www.w3.org/2000/svg" width="20" height="19" viewBox="0 0 20 19">
    <g fill="none" fill-rule="evenodd">
        <path fill="#ACACAC" d="M5.8 1h8.4A4.8 4.8 0 0 1 19 5.8v8.4a4.8 4.8 0 0 1-4.8 4.8H5.8A4.8 4.8 0 0 1 1 14.2V5.8A4.8 4.8 0 0 1 5.8 1z"/>
        <path fill="#ACACAC" stroke="#FFF" stroke-linecap="round" stroke-linejoin="round" d="M10 6.48a4.304 4.304 0 1 1 0 8.609 4.304 4.304 0 0 1 0-8.609z"/>
        <path fill="#ACACAC" stroke="#FFF" stroke-linecap="round" stroke-linejoin="round" d="M10 8.784a2 2 0 1 1 0 4 2 2 0 0 1 0-4z"/>
        <path fill="#7D8777" stroke="#FFF" stroke-linecap="round" stroke-linejoin="round" d="M1 8.824h5.168M13.84 8.824H19"/>
        <path fill="#ACACAC" stroke="#FFF" stroke-linecap="round" stroke-linejoin="round" d="M15 3.8h.4a.8.8 0 0 1 .8.8V5a.8.8 0 0 1-.8.8H15a.8.8 0 0 1-.8-.8v-.4a.8.8 0 0 1 .8-.8z"/>
        <path fill="#7D8777" stroke="#FFF" stroke-linecap="round" stroke-linejoin="round" d="M4.896 1.088v3.144M7.024 1v3.232M9.152 1v3.232"/>
    </g>
</svg>
