<svg xmlns="http://www.w3.org/2000/svg" width="37" height="23" viewBox="0 0 37 23">
    <g fill="none" fill-rule="evenodd">
        <path fill="#F9F9F9" fill-rule="nonzero" d="M36.774 21.386c0 .663-.547 1.21-1.21 1.21H1.842c-.663 0-1.21-.547-1.21-1.21V1.211C.632.548 1.179 0 1.842 0h33.75c.664 0 1.211.548 1.211 1.21v20.176h-.029z"/>
        <path fill="#FBB231" d="M23.055 17.783h.317l.346-.029.317-.057.317-.058.317-.058.317-.086.288-.115.289-.116.288-.115.288-.144.288-.173.26-.144.26-.202.23-.173.23-.23.23-.202.231-.23.202-.231.173-.26.202-.23.144-.288.173-.26.144-.288.115-.288.116-.288.115-.289.086-.317.087-.317.057-.317.03-.317.028-.346v-.663l-.029-.317-.029-.346-.057-.317-.087-.288-.086-.317-.115-.317-.116-.288-.115-.288-.144-.26-.173-.288-.144-.26-.202-.259-.173-.23-.202-.23-.23-.231-.23-.231-.231-.202-.23-.173-.26-.201-.26-.145-.288-.173-.288-.144-.288-.115-.289-.115-.288-.115-.317-.087-.317-.058-.317-.057-.317-.058-.346-.029h-.663l-.317.03-.346.057-.317.057-.317.058-.288.087-.317.115-.288.115-.288.115-.26.144-.288.173-.26.145-.259.201-.23.173-.231.202-.23.23-.231.231-.202.23-.173.231-.202.26-.144.26-.173.287-.144.26-.115.288-.115.288-.116.317-.086.317-.058.288-.057.317-.058.346-.029.317v.663l.029.346.058.317.057.317.058.317.086.317.116.289.115.288.115.288.144.288.173.26.144.288.202.23.173.26.202.23.23.231.231.202.23.23.231.173.26.202.259.144.288.173.26.144.288.115.288.116.317.115.288.086.317.058.317.058.346.057.317.03h.346z"/>
        <path fill="#EC1C2E" d="M14.38 17.783h.317l.346-.029.317-.057.317-.058.317-.058.288-.086.317-.115.288-.116.288-.115.289-.144.26-.173.258-.144.26-.202.26-.173.23-.23.202-.202.23-.23.202-.231.202-.26.173-.23.173-.288.144-.26.144-.288.144-.288.115-.288.087-.289.086-.317.087-.317.057-.317.029-.317.029-.346v-.663l-.029-.317-.029-.346-.057-.317-.087-.288-.086-.317-.087-.317-.115-.288-.144-.288-.144-.26-.144-.288-.173-.26-.173-.259-.202-.23-.202-.23-.23-.231-.202-.231-.23-.202-.26-.173-.26-.201-.259-.145-.26-.173-.288-.144-.288-.115-.288-.115-.317-.115-.288-.087-.317-.058-.317-.057-.317-.058-.346-.029h-.663l-.317.03-.346.057-.317.057-.317.058-.288.087-.317.115-.289.115-.288.115-.288.144-.26.173-.259.145-.26.201-.259.173-.23.202-.23.23-.203.231-.201.23-.202.231-.173.26-.173.26-.173.287-.144.26-.115.288-.116.288-.115.317-.086.317-.058.288-.058.317-.057.346-.03.317v.663l.03.346.057.317.058.317.058.317.086.317.115.289.116.288.115.288.144.288.173.26.173.288.173.23.202.26.201.23.202.231.23.202.231.23.26.173.26.202.259.144.259.173.288.144.288.115.289.116.317.115.288.086.317.058.317.058.346.057.317.03h.346z"/>
        <path fill="#FBB231" d="M17.954 7.446h3.43v-.5h-3.142l-.288.5zM17.435 8.224h3.948v-.5h-3.746l-.202.5zM17.06 9.003h4.323v-.5h-4.179l-.144.5zM16.772 9.78h4.611v-.5h-4.496l-.115.5zM16.945 13.585h4.467v-.5H16.83l.115.5zM17.262 14.363h4.15v-.5H17.09l.173.5zM17.723 15.142h3.69v-.5H17.52l.202.5zM18.357 15.92h3.055v-.5H18.07l.288.5zM16.628 10.588h4.755v-.5h-4.698l-.057.5zM19.539 12.807h1.816v-.5h-1.759l-.057.5zM19.683 12.029h1.672v-.5H19.74l-.058.5zM16.513 11.529h.5v.5h-.47l-.03-.5z"/>
        <path fill="#FFF" d="M15.619 11.096h-.029l-.029-.028h-.173l-.028-.03h-.26l-.057.03H14.898l-.028.028h-.03l-.028.03-.029.028v.029h-.029V11.327l.03.029.028.029.029.029.057.057.058.029h.058l.086.029.058.029.086.028.058.03.058.028.086.058.029.057.058.058.028.087.03.086v.375l-.03.086-.057.087-.03.057-.057.058-.057.058-.058.057-.058.029-.086.058-.058.028h-.086l-.058.03h-.086l-.087.028h-.519l-.057-.029h-.202l-.029-.029h-.087l-.028-.028h-.029l-.058-.03.116-.46h.057l.058.028H14.091l.03.03H14.292l.058.028h.375l.057-.029.029-.029.029-.028.029-.03.028-.028V12.221l.03-.058-.03-.058-.028-.029-.058-.028-.086-.058-.058-.029-.087-.029-.086-.028-.086-.03-.087-.057-.086-.058-.058-.057-.058-.087-.029-.115-.028-.115V11.154l.028-.058.03-.086v-.058l.057-.086.029-.058.057-.057.058-.03.058-.057.057-.029.087-.028.086-.03h.087l.115-.028H15.533l.028.029h.145v.029h.028l-.115.49z"/>
        <path stroke="#FFF" stroke-width=".216" d="M15.619 11.096h-.029l-.029-.028h-.173l-.028-.03h-.26l-.057.03H14.898l-.028.028h-.03l-.028.03-.029.028v.029h-.029V11.327l.03.029.028.029.029.029.057.057.058.029h.058l.086.029.058.029.086.028.058.03.058.028.086.058.029.057.058.058.028.087.03.086v.375l-.03.086-.057.087-.03.057-.057.058-.057.058-.058.057-.058.029-.086.058-.058.028h-.086l-.058.03h-.086l-.087.028h-.519l-.057-.029h-.202l-.029-.029h-.087l-.028-.028h-.029l-.058-.03.116-.46h.057l.058.028H14.091l.03.03H14.292l.058.028h.375l.057-.029.029-.029.029-.028.029-.03.028-.028V12.221l.03-.058-.03-.058-.028-.029-.058-.028-.086-.058-.058-.029-.087-.029-.086-.028-.086-.03-.087-.057-.086-.058-.058-.057-.058-.087-.029-.115-.028-.115V11.154l.028-.058.03-.086v-.058l.057-.086.029-.058.057-.057.058-.03.058-.057.057-.029.087-.028.086-.03h.087l.115-.028H15.533l.028.029h.145v.029h.028l-.115.49"/>
        <path fill="#FFF" d="M16.138 10.059h.605l-.086.519h.374l-.086.49h-.375l-.23 1.21v.058l.028.029v.028l.03.03h.057l.029.028H16.772l.029-.029h.029l-.087.404-.029.029h-.029v.028H16.6l-.029.03h-.576l-.058-.03-.058-.028h-.057l-.029-.03-.029-.028-.029-.029v-.087l-.028-.028V12.508l.028-.057.404-2.392z"/>
        <path stroke="#FFF" stroke-width=".216" d="M16.138 10.059h.605l-.086.519h.374l-.086.49h-.375l-.23 1.21v.058l.028.029v.028l.03.03h.057l.029.028H16.772l.029-.029h.029l-.087.404-.029.029h-.029v.028H16.6l-.029.03h-.576l-.058-.03-.058-.028h-.057l-.029-.03-.029-.028-.029-.029v-.087l-.028-.028V12.508l.028-.057.404-2.392"/>
        <path stroke="#FFF" stroke-width=".216" d="M17.521 11.904l-.029.028V12.02l.03.057v.03l.028.028.029.058.029.029.029.028.028.03.03.057.028.029h.058l.029.028.057.03H18.011l.058.028H18.357l.058-.029h.057l.058-.029h.058l.086-.028.058-.03.057-.028.058-.029-.086.519-.03.029h-.028l-.058.029h-.028l-.03.028h-.057l-.058.03H17.723l-.115-.03-.116-.057-.086-.029-.115-.058-.087-.057-.086-.087-.058-.086-.057-.087-.058-.115-.058-.144v-.144l-.029-.144.03-.202v-.058l.028-.086v-.087l.029-.086.029-.087.029-.115.057-.086.058-.087.086-.086.087-.087.086-.086.115-.058.116-.057.144-.03.173-.028h.346l.086.029h.087l.086.029.087.057.086.058.058.057.086.058.058.087.029.115.028.115.03.115v.173l-.03.144-.028.202v.116H17.32l.115-.433h.951V11.27l-.029-.028v-.03l-.029-.028-.029-.029-.028-.029-.03-.029-.028-.028h-.029l-.029-.03H18.07l-.029-.028-.058.029H17.924l-.028.029h-.058l-.028.028-.03.03-.028.028-.029.029-.029.029-.029.029v.028l-.028.058-.03.029V11.442l-.086.462"/>
        <path fill="#FFF" d="M22.738 10.722l-.029-.029h-.029l-.028-.029h-.058l-.029-.029h-.029l-.028-.028H22.42l-.058-.03h-.115l-.058-.028H22.018l-.058.029h-.115l-.058.029-.058.028-.057.03-.087.028-.057.058-.058.057-.029.058-.058.086-.057.087-.058.115-.029.115-.028.145-.03.086v.288l.03.087v.057l.028.058.03.058.057.057.029.058.057.058.058.028.086.03.058.028.087.029H21.816l.029.029H22.046l.058-.03h.058l.057-.028h.058l.058-.029.057-.029.03-.028.057-.058-.116.605-.028.029-.03.029h-.028l-.029.029h-.029l-.029.028h-.057l-.058.03H21.412l-.086-.03-.115-.028-.087-.058-.115-.058-.087-.057-.086-.058-.087-.086-.057-.116-.058-.115-.058-.115-.057-.144-.029-.144V11.586l.029-.172.029-.087v-.086l.028-.087.03-.086.028-.087.029-.057.029-.087.029-.058.028-.086.03-.058.028-.057.058-.058.028-.058.058-.057.029-.03.058-.057.057-.057.03-.03.057-.028.057-.029.058-.057.058-.03h.057l.058-.028.086-.029.058-.029h.087l.057-.029h.144l.087-.028h.144l.086.028h.202l.058.03h.057l.03.028h.057l.057.029h.03l.028.029h.058l.029.029-.087.605z"/>
        <path stroke="#FFF" stroke-width=".216" d="M22.738 10.722l-.029-.029h-.029l-.028-.029h-.058l-.029-.029h-.029l-.028-.028H22.42l-.058-.03h-.115l-.058-.028H22.018l-.058.029h-.115l-.058.029-.058.028-.057.03-.087.028-.057.058-.058.057-.029.058-.058.086-.057.087-.058.115-.029.115-.028.145-.03.086v.288l.03.087v.057l.028.058.03.058.057.057.029.058.057.058.058.028.086.03.058.028.087.029H21.816l.029.029H22.046l.058-.03h.058l.057-.028h.058l.058-.029.057-.029.03-.028.057-.058-.116.605-.028.029-.03.029h-.028l-.029.029h-.029l-.029.028h-.057l-.058.03H21.412l-.086-.03-.115-.028-.087-.058-.115-.058-.087-.057-.086-.058-.087-.086-.057-.116-.058-.115-.058-.115-.057-.144-.029-.144V11.586l.029-.172.029-.087v-.086l.028-.087.03-.086.028-.087.029-.057.029-.087.029-.058.028-.086.03-.058.028-.057.058-.058.028-.058.058-.057.029-.03.058-.057.057-.057.03-.03.057-.028.057-.029.058-.057.058-.03h.057l.058-.028.086-.029.058-.029h.087l.057-.029h.144l.087-.028h.144l.086.028h.202l.058.03h.057l.03.028h.057l.057.029h.03l.028.029h.058l.029.029-.087.605"/>
        <path fill="#FFF" d="M28.099 12.912h-.605l.057-.23v-.03l-.028.059-.058.028-.029.03-.029.028-.057.029-.03.029-.028.028-.058.03h-.028l-.058.028h-.115l-.058.029H26.888l-.115-.029-.086-.029-.116-.029-.086-.057-.058-.058-.086-.057-.058-.087-.057-.086-.03-.116-.028-.086-.029-.115-.029-.116V11.76l.03-.086.028-.144.058-.115.028-.116.058-.115.058-.087.057-.086.087-.086.057-.058.087-.087.086-.028.087-.058.057-.029.087-.057h.086l.116-.03h.144l.057.03h.116l.057.028.03.03.057.028h.029l.028.029.03.029.028.028.029.03.029.028.029.029v.029l.028.029.145-.865h.605l-.519 2.853z"/>
        <path stroke="#FFF" stroke-width=".216" d="M28.099 12.912h-.605l.057-.23v-.03l-.028.059-.058.028-.029.03-.029.028-.057.029-.03.029-.028.028-.058.03h-.028l-.058.028h-.115l-.058.029H26.888l-.115-.029-.086-.029-.116-.029-.086-.057-.058-.058-.086-.057-.058-.087-.057-.086-.03-.116-.028-.086-.029-.115-.029-.116V11.76l.03-.086.028-.144.058-.115.028-.116.058-.115.058-.087.057-.086.087-.086.057-.058.087-.087.086-.028.087-.058.057-.029.087-.057h.086l.116-.03h.144l.057.03h.116l.057.028.03.03.057.028h.029l.028.029.03.029.028.028.029.03.029.028.029.029v.029l.028.029.145-.865h.605l-.519 2.853"/>
        <path fill="#FBB231" d="M27.119 12.393h.115l.058-.028.058-.03.028-.028.058-.029.029-.029.058-.057.028-.03.03-.057.028-.029.029-.057v-.058l.029-.057.028-.058v-.115l.03-.087v-.058l-.03-.057v-.115l-.028-.03v-.057l-.03-.058-.028-.028-.029-.03-.029-.028-.028-.029-.058-.029h-.029l-.058-.029-.057.03h-.058l-.029.028h-.057l-.058.029-.029.058-.029.028-.057.03-.03.057-.028.058-.029.028-.029.058-.028.058v.086l-.03.058v.057l-.028.087.029.115v.115l.029.087.057.086.058.087.058.057h.086z"/>
        <path fill="#FFF" d="M13.688 12.451l-.086.461h-.548v-.086l.029-.058V12.652l-.03.059-.028.028-.029.03-.057.028-.058.029-.058.029-.057.028-.058.03h-.058l-.057.028h-.058l-.086.029H12.276l-.058-.029h-.086l-.058-.029-.058-.029-.057-.028-.058-.058-.058-.029-.028-.029-.03-.057-.028-.03v-.057l-.029-.057-.029-.03v-.374l.03-.086.028-.058.029-.086.057-.058.03-.058.057-.057.057-.058.058-.029.058-.058.086-.028.058-.03.086-.028.058-.029H12.593l.029-.029h.259l.029-.028h.057l.058.028h.202v-.028l.029-.03V11.242l-.03-.03-.028-.057-.029-.029-.029-.029h-.057l-.058-.028h-.519l-.086.028h-.115l-.058.03h-.058l-.057.028h-.03l-.028.029h-.029l.144-.519.058-.029h.058l.057-.028h.029l.058-.03H12.622l.057-.028H13.17l.087.029h.115l.086.029.058.028.058.03.057.028.087.058.057.028.03.058.057.058.029.086.029.058v.259l-.231 1.153z"/>
        <path stroke="#FFF" stroke-width=".216" d="M13.688 12.451l-.086.461h-.548v-.086l.029-.058V12.652l-.03.059-.028.028-.029.03-.057.028-.058.029-.058.029-.057.028-.058.03h-.058l-.057.028h-.058l-.086.029H12.276l-.058-.029h-.086l-.058-.029-.058-.029-.057-.028-.058-.058-.058-.029-.028-.029-.03-.057-.028-.03v-.057l-.029-.057-.029-.03v-.374l.03-.086.028-.058.029-.086.057-.058.03-.058.057-.057.057-.058.058-.029.058-.058.086-.028.058-.03.086-.028.058-.029H12.593l.029-.029h.259l.029-.028h.057l.058.028h.202v-.028l.029-.03V11.242l-.03-.03-.028-.057-.029-.029-.029-.029h-.057l-.058-.028h-.519l-.086.028h-.115l-.058.03h-.058l-.057.028h-.03l-.028.029h-.029l.144-.519.058-.029h.058l.057-.028h.029l.058-.03H12.622l.057-.028H13.17l.087.029h.115l.086.029.058.028.058.03.057.028.087.058.057.028.03.058.057.058.029.086.029.058v.259l-.231 1.153"/>
        <path fill="#EC1C2E" d="M13.17 11.875v-.03h-.088l-.028-.028h-.058l-.029.029H12.794l-.028.029H12.708l-.029.029h-.057l-.03.028h-.028l-.029.03-.029.028-.029.029h-.028l-.03.029v.028l-.028.03v.057l-.029.029v.057l.029.058.029.058.029.028.028.03h.03l.028.028H12.65l.058-.029H12.794l.058-.029.029-.028h.058l.028-.03.03-.028.028-.029v-.029l.029-.028h.029V12.163l.029-.029v-.058l.028-.086v-.058l.03-.057z"/>
        <path fill="#FFF" d="M9.076 12.912H8.5l.49-2.853h1.038l.086 1.7.72-1.7h1.067l-.49 2.853h-.605l.374-2.133h-.028l-.865 2.133h-.692v-.316l-.029-.347-.028-.374-.03-.404v-.346l-.028-.23v-.116h-.029l-.375 2.133z"/>
        <path stroke="#FFF" stroke-width=".216" d="M9.076 12.912H8.5l.49-2.853h1.038l.086 1.7.72-1.7h1.067l-.49 2.853h-.605l.374-2.133h-.028l-.865 2.133h-.692v-.316l-.029-.347-.028-.374-.03-.404v-.346l-.028-.23v-.116h-.029l-.375 2.133"/>
        <path fill="#FFF" d="M24.554 12.451l-.087.461h-.547V12.681l-.029.03-.029.028-.057.03-.03.028-.057.029-.058.029-.028.028-.058.03h-.058l-.086.028h-.058l-.057.029H23.142l-.058-.029h-.087l-.057-.029-.058-.029-.057-.028-.058-.058-.058-.029-.029-.029-.028-.057-.03-.03v-.057l-.028-.057v-.03l-.029-.057v-.23l.029-.087v-.086l.029-.058.029-.086.057-.058.03-.058.057-.057.057-.058.058-.029.058-.058.086-.028.058-.03.086-.028.058-.029h.173l.057-.029H23.718l.029-.028H23.833l.058.028h.202V11.384l.029-.057v-.029l-.03-.057v-.03l-.028-.057-.029-.029-.058-.029h-.028l-.058-.028h-.519l-.086.028h-.116l-.057.03h-.058l-.058.028h-.028l-.03.029h-.028l.144-.519.058-.029h.057l.058-.028h.029l.058-.03H23.487l.058-.028h.49l.058.029h.144l.057.029.087.028.058.03.057.028.058.058.058.028.057.058.058.058.029.086v.058l.028.086v.173l-.23 1.153z"/>
        <path fill="#FFF" d="M24.489 12.951l.15-.5h-.05l-.15.47h.05v.03z"/>
        <path fill="#FFF" d="M23.891 12.912l.029.05h.547v-.05H23.891v.05h.029l-.029-.05z"/>
        <path fill="#FFF" d="M23.941 12.703v-.05l-.05.1v.35h.05V12.653v.05z"/>
        <path fill="#FFF" d="M23.084 13.153H23.372l.087-.046h.057l.058-.045.058-.045.057-.046h.058l.029-.09.057-.046.03-.046.028-.045.029-.046v-.045l-.029.09-.058.046-.028.046-.03.045-.057.046-.058.045h-.057l-.03.046-.057.045h-.086l-.058.045H23.084v.046zM22.536 12.307v.029l.03.057v.116l.028.029v.057l.029.058.029.029.028.057.03.03.057.057.029.029.057.028.087.03.057.028.087.029v-.029l-.087-.029-.057-.029-.058-.028-.057-.03-.058-.028-.029-.029-.029-.057-.029-.03-.028-.057-.03-.029-.028-.057V12.393l-.029-.057v-.029h-.029zM23.343 11.471h-.086l-.087.029-.057.029-.087.029-.057.028-.058.03-.058.057-.057.058-.058.057-.058.058-.028.058-.03.086-.028.058-.029.086v.087l-.029.086h.03l.028-.086v-.087l.029-.086.029-.058.028-.086.03-.058.057-.058.029-.057.057-.03.058-.057.086-.029.058-.057.058-.03h.086l.058-.028.086-.029zM23.843 11.414h-.2l-.066.05h-.234v.05h.234l.066-.05h.2v-.05z"/>
        <path fill="#FFF" d="M24.276 11.464v-.05H23.776v.05h.5z"/>
        <path fill="#FFF" d="M24.093 11.298v.25l.05-.05v-.2h-.05z"/>
        <path fill="#FFF" d="M23.833 11.089l.1.05h.1l.05.05.05.05.05.05.05.05.05.05v.1h.05v-.1l-.05-.05-.05-.1-.05-.05-.05-.05-.1-.05h-.1l-.1-.05v.05zM22.911 11.289v.05l.029-.05h.029l.028-.05h.058l.058-.05h.115l.058-.05h.144l.086-.05h.317l-.057-.05H23.574l-.058.05H23.286l-.058.05h-.115l-.058.05h-.058l-.028.05h-.03l-.028.05h.029-.029zM23.161 10.635v.03l-.25.518h.05l.25-.519-.05-.029v.03-.03z"/>
        <path fill="#FFF" d="M24.035 10.549H23.43l-.058.05h-.115l-.029.05h-.058l-.057.05h-.058l.029.05h.029l.057-.05.058-.05H23.315l.057-.05h.663v-.05zM24.784 11.298v-.259l-.028-.087-.03-.057-.057-.058-.029-.058-.057-.057-.087-.029-.057-.029-.058-.029-.087-.028-.057-.03-.058-.028h-.144v.029h.115l.087.029.057.028h.058l.087.058.057.029.058.029.058.057.057.058.029.058.029.057.029.058.028.086v.087l-.028.057.028.03zM24.575 12.451l.4-1.153-.05-.029-.4 1.182h.05z"/>
        <path fill="#FBB231" d="M24.006 11.875v-.03h-.029l-.028-.028H23.833l-.028.029h-.145l-.028.029h-.087l-.029.029h-.029l-.028.028h-.03l-.028.03h-.029l-.029.028-.028.029-.03.029v.028l-.028.03v.259l.029.028.057.03h.03l.028.028H23.516l.058-.029h.058l.057-.029h.029l.058-.028.029-.03.028-.028h.03l.028-.029.029-.029.029-.028v-.03l.028-.028v-.115l.03-.058v-.115z"/>
        <path fill="#FFF" d="M28.531 12.836v-.2l.03-.1.057-.05.029-.05.057-.05.058-.05h.115l.058.05.057.05.058.05.029.05.029.1.029.1v.1h-.058v-.05l-.029-.1-.029-.05-.029-.1-.028-.05-.03-.05h-.201l-.058.05-.028.05-.03.1-.028.05V12.836h-.058z"/>
        <path fill="#FFF" d="M28.733 12.709v-.2h.35v.2h-.15.05l.05-.05v-.1h-.25v.15h-.05z"/>
        <path fill="#FFF" d="M28.531 12.624v.227l.03.091.057.046.029.045.057.046.058.045h.115l.058-.045.057-.046.058-.045.029-.046.029-.09.029-.092v-.136h-.058v.091l-.029.09-.029.046-.029.091-.028.046-.03.045h-.201l-.058-.045-.028-.046-.03-.09-.028-.046v-.182h-.058z"/>
        <path fill="#FFF" d="M28.733 12.624v.25h.05v-.2h.1l.15.2h.05l-.1-.2h.05l.05-.05H28.733z"/>
        <path stroke="#FFF" stroke-width=".216" d="M28.531 12.653v-.058l.03-.057.028-.058.029-.058.057-.029.058-.028.058-.03h.115l.058.03.057.028.058.03.029.057.029.058.028.057v.116l-.028.057-.03.058-.028.057-.058.03-.057.028H28.762l-.058-.029-.057-.029-.058-.028-.029-.058-.029-.058-.028-.057.028-.03m.23.116h-.057v-.26h.231V12.625h-.058l.058.115h-.058l-.057-.115h-.058v.144m.058-.144h.028v-.029h-.057v.087h.029m0 .201h.057l.058-.028.029-.03.028-.028.03-.029.028-.029v-.23l-.029-.058-.029-.029-.028-.029H28.733l-.029.03-.029.028-.028.029-.058.058v.23l.029.029.029.029.028.029.03.028.057.03.058-.03"/>
        <path fill="#FFF" d="M24.698 12.912h.634l.202-1.24.029-.028v-.058l.028-.057V11.5l.03-.058.028-.057.029-.03.029-.057.057-.029.03-.028.057-.03.058-.028.057-.029.058-.029H26.254l.087-.576-.058.029h-.115l-.058.029h-.029l-.057.028-.029.03-.058.028-.028.029-.03.029-.057.028-.029.03-.029.057-.028.029-.03.029-.028.057.058-.403h-.606l-.432 2.334z"/>
        <path stroke="#FFF" stroke-width=".216" d="M24.698 12.912h.634l.202-1.24.029-.028v-.058l.028-.057V11.5l.03-.058.028-.057.029-.03.029-.057.057-.029.03-.028.057-.03.058-.028.057-.029.058-.029H26.254l.087-.576-.058.029h-.115l-.058.029h-.029l-.057.028-.029.03-.058.028-.028.029-.03.029-.057.028-.029.03-.029.057-.028.029-.03.029-.028.057.058-.403h-.606l-.432 2.334"/>
        <path fill="#FFF" d="M18.905 12.912h.634l.202-1.24.028-.028v-.115l.03-.029.028-.058v-.028l.029-.03.029-.057.057-.029.03-.029.057-.028.029-.03h.086l.058-.028h.086l.058-.029h.029v.029h.057V11.096l.03-.028v-.058l.028-.086v-.058l.029-.058.029-.029.028-.057v-.029l.03-.029.028-.057.029-.03h-.058l-.029-.028h-.028l-.058.029h-.115l-.058.029h-.058l-.028.028-.058.03-.029.028-.029.029-.057.029-.03.028-.028.03-.029.028-.029.058-.028.029-.03.057.058-.403h-.605l-.432 2.334z"/>
        <path stroke="#FFF" stroke-width=".216" d="M18.905 12.912h.634l.202-1.24.028-.028v-.115l.03-.029.028-.058v-.028l.029-.03.029-.057.057-.029.03-.029.057-.028.029-.03h.086l.058-.028h.086l.058-.029h.029v.029h.057V11.096l.03-.028v-.058l.028-.086v-.058l.029-.058.029-.029.028-.057v-.029l.03-.029.028-.057.029-.03h-.058l-.029-.028h-.028l-.058.029h-.115l-.058.029h-.058l-.028.028-.058.03-.029.028-.029.029-.057.029-.03.028-.028.03-.029.028-.029.058-.028.029-.03.057.058-.403h-.605l-.432 2.334"/>
        <path fill="#FBB231" d="M28.531 15.387v-.1l.03-.1.057-.05.029-.05.057-.05.058-.05h.115l.058.05.057.05.058.05.029.05.029.1.029.1h-.058l-.029-.05-.029-.1-.029-.05-.028-.05-.03-.05h-.057l-.057-.05-.03.05h-.057l-.058.05-.028.05-.03.05-.028.1v.05h-.058z"/>
        <path fill="#FBB231" d="M28.733 15.26v-.1h.35v.1h-.05v-.05h-.25v.05h-.05zM28.531 15.318v-.1h.1v.1h-.1z"/>
        <path fill="#FBB231" d="M28.733 15.318v-.1h.05v.1h.2v-.05h.05v-.05h.05v.1h-.35z"/>
        <path fill="#FBB231" d="M29.079 15.318v-.1h.1v.1h-.1z"/>
        <path fill="#FBB231" d="M28.531 15.276v.182l.03.09.057.091.029.046.057.045.058.046h.115l.058-.046.057-.045.058-.046.029-.09.029-.091.029-.091v-.091h-.058v.09l-.029.092-.029.045-.029.045-.028.091h-.03l-.057.046h-.087l-.057-.046h-.058l-.028-.09-.03-.046-.028-.045v-.182h-.058z"/>
        <path fill="#FBB231" d="M28.733 15.276v.2h.05v-.15h.1l.15.15h.05l-.1-.15.05-.05h.05-.35z"/>
        <path fill="#FFF" d="M18.991 11.27l-.029-.145-.028-.115-.058-.086-.058-.087-.057-.086-.058-.058-.086-.029-.087-.029-.086-.028-.087-.03-.086-.028h-.346l-.144.029-.144.029-.145.057-.115.058-.086.086-.087.087-.057.086-.087.087-.057.086-.03.087-.028.086-.029.087v.605l.029.144.029.115.057.115.058.087.086.086.087.087.086.058.087.057.115.029.115.029.116.029.115.028H18.761l.028-.028.03-.03.086-.547-.116.029-.057.029-.058.029-.086.028H17.81l-.058-.028-.029-.03-.029-.028-.029-.029-.028-.029-.03-.028-.028-.03-.029-.028-.029-.058-.029-.029V11.961h1.413v-.144l.029-.173.028-.173.03-.202zm-.605.201h-.807V11.327l.029-.058.029-.028.028-.03.03-.028.028-.029.029-.029.029-.029.029-.028.028-.03.03-.028h.23l.029.029.028.029.03.028.028.03.029.028.029.029.028.029.03.029V11.414l.057.057z"/>
    </g>
</svg>
