<svg xmlns="http://www.w3.org/2000/svg" width="37" height="23" viewBox="0 0 37 23">
    <g fill="none" fill-rule="nonzero">
        <path fill="#F9F9F9" d="M36.143 21.386c0 .663-.548 1.21-1.21 1.21H1.21C.548 22.596 0 22.05 0 21.386V1.211C0 .548.548 0 1.21 0h33.751c.663 0 1.21.548 1.21 1.21v20.176h-.028z"/>
        <g fill="#0066B2">
            <path d="M16.63 14.7h-1.758l1.095-6.803h1.787zM13.373 7.897l-1.671 4.67-.202-1.01-.605-3.054s-.058-.606-.836-.606H7.263l-.029.116s.865.172 1.845.778l1.556 5.908h1.845l2.796-6.802h-1.903zM27.266 14.7h1.614l-1.413-6.774h-1.412c-.663 0-.807.519-.807.519l-2.623 6.254h1.845l.375-1.009h2.248l.173 1.01zm-1.931-2.422l.922-2.536.519 2.536h-1.441zM22.74 9.54L23 8.07s-.778-.288-1.585-.288c-.865 0-2.969.375-2.969 2.248 0 1.758 2.45 1.787 2.45 2.68 0 .923-2.19.75-2.911.173l-.26 1.528s.779.375 1.99.375c1.21 0 3.026-.634 3.026-2.335 0-1.758-2.48-1.93-2.48-2.68.03-.75 1.73-.634 2.48-.23z"/>
        </g>
        <path fill="#F9A533" d="M11.5 11.558l-.605-3.055s-.058-.606-.836-.606H7.263l-.029.116S8.56 8.3 9.857 9.338c1.24.98 1.643 2.22 1.643 2.22z"/>
    </g>
</svg>
