<svg xmlns="http://www.w3.org/2000/svg" width="37" height="23" viewBox="0 0 37 23">
    <g fill="none" fill-rule="evenodd">
        <path fill="#F9F9F9" fill-rule="nonzero" d="M36.459 21.386c0 .663-.548 1.21-1.21 1.21H1.525c-.663 0-1.21-.547-1.21-1.21V1.211C.316.548.863 0 1.526 0h33.75c.664 0 1.211.548 1.211 1.21v20.176h-.028z"/>
        <path fill="#FAA929" d="M12.479 12.71c2.738-1.181 6.571-2.248 11.644-1.181l.057-1.297c-5.36-.577-9.223 1.124-11.701 2.334v.145z"/>
        <g fill="#045EA0">
            <path d="M7.55 13.662h2.594v.778H8.53v.72h1.585v.75H8.501l.03.72h1.555v.779H7.55zM10.778 13.373h.951v4.036h-.95zM14.957 17.091c-.317.26-.807.404-1.239.404-.98 0-1.441-.692-1.441-1.383 0-.807.605-1.528 1.47-1.528 1.037 0 1.355.72 1.355 1.672h-1.874c0 .201.144.576.663.576.317 0 .519-.086.778-.26l.288.52zm-.691-1.383c0-.288-.144-.548-.461-.548-.289 0-.52.26-.577.548h1.038zM17.955 17.236c-.26.173-.692.288-1.009.288-.865 0-1.47-.49-1.47-1.384 0-.922.605-1.527 1.557-1.527.317 0 .72.115.922.23l-.288.606c-.144-.058-.289-.116-.433-.116-.46 0-.778.289-.778.72 0 .376.288.693.692.693.173 0 .346-.087.519-.144l.288.634zM18.3 14.7h.433v-.923h.894l-.03.922h.779l-.029.692h-.778c0 .375-.029.778-.029 1.009 0 .23.058.346.26.346.144 0 .23-.058.345-.116l.202.634c-.288.173-.605.26-.922.26-.75 0-.807-.49-.807-1.095 0-.346.029-.663.029-1.038h-.404l.058-.692zM20.837 14.7h.951v.374c.144-.23.317-.461.692-.461.115 0 .202 0 .317.029l-.115.922a1.075 1.075 0 0 0-.346-.058c-.317 0-.548.26-.548.317l-.029 1.557h-.95l.028-2.68zM24.497 14.584c1.01 0 1.528.634 1.528 1.47 0 .807-.519 1.47-1.528 1.47-1.008 0-1.527-.634-1.527-1.47s.519-1.47 1.527-1.47zm0 2.22c.462 0 .577-.375.577-.75 0-.346-.144-.75-.577-.75-.46 0-.576.375-.576.75 0 .346.115.75.576.75zM26.515 14.7h.951v.287c.202-.201.548-.403.894-.403.576 0 .893.317.893 1.066v1.759h-.98v-1.615c0-.23-.057-.403-.346-.403-.144 0-.374.144-.49.26v1.758h-.95l.028-2.71z"/>
        </g>
        <g fill="#045EA0">
            <path d="M15.274 9.079l1.182-3.891h1.067l-1.182 3.89zM14.784 5.188l-.95 1.643c-.231.432-.375.663-.462.922.029-.346-.029-.778-.029-1.009l-.115-1.556h-1.787l-.029.115c.461 0 .72.23.807.692l.346 3.113h1.095l2.249-3.92h-1.125zM23.028 9.079l-.03-.576h-1.325l-.26.576h-1.152l2.075-3.891h1.412l.346 3.89h-1.066zm-.116-2.306c0-.288-.029-.692 0-.922h-.029c-.057.202-.345.778-.46 1.066l-.404.865h.922l-.029-1.009zM18.618 9.194c-.75 0-1.24-.23-1.585-.46l.49-.78c.317.174.576.376 1.152.376.173 0 .375-.058.462-.231.144-.26-.03-.404-.462-.634l-.201-.087c-.606-.432-.865-.807-.577-1.498.173-.433.663-.778 1.47-.778.548 0 1.067.23 1.384.46l-.577.692c-.288-.23-.547-.345-.807-.345-.23 0-.403.086-.461.201-.115.23.029.375.346.577l.23.144c.75.461.923.951.721 1.412-.288.778-.922.951-1.585.951z"/>
        </g>
    </g>
</svg>
